# xmcd
#
# Track frame offsets: 
#        150
#        10365
#        24487
#        35290
#        46826
#        59682
#        73873
#        82735
#        95238
#        110940
#        122707
#        134505
#        146168
#        155560
#        165393
#        174311
#        185455
#        198440
#
# Disc length: 2825 seconds
#
# Revision: 0
# Processed by: cddbd v1.5.2PL0 Copyright (c) Steve Scherf et al.
# Submitted via: ExactAudioCopy v0.95b4
#
DISCID=020b0712
DTITLE=George Jones - Country Roads - CD 1
DYEAR=2008
DGENRE=Country
TTITLE0=Walk Through This World With Me
TTITLE1=A Good Year For The Roses
TTITLE2=Tender Years
TTITLE3=White Lightning
TTITLE4=Things Have Gone To Pieces
TTITLE5=Open Pit Mine
TTITLE6=Love Bug
TTITLE7=Brothers Of A Bottle
TTITLE8=Radio Lover
TTITLE9=I Can't Change Overnight
TTITLE10=Least Of All
TTITLE11=You Comb Her Hair
TTITLE12=World's Worst Loser
TTITLE13=Back In My Baby's Arms Again
TTITLE14=Please Don't Let That Woman Get Me
TTITLE15=Tarnished Angel
TTITLE16=Wedding Bells
TTITLE17=Golden Ring
EXTD=
EXTT0=
EXTT1=
EXTT2=
EXTT3=
EXTT4=
EXTT5=
EXTT6=
EXTT7=
EXTT8=
EXTT9=
EXTT10=
EXTT11=
EXTT12=
EXTT13=
EXTT14=
EXTT15=
EXTT16=
EXTT17=
PLAYORDER=
